<svg width="1280" height="832" viewBox="0 0 1280 832" fill="none" xmlns="http://www.w3.org/2000/svg">
<rect width="1280" height="832" fill="black"/>
<rect x="627" width="653" height="832" fill="#10069F" fill-opacity="0.64"/>
<rect x="715" y="257" width="450" height="300" rx="20" fill="url(#paint0_linear_16_56)"/>
<path d="M684.05 132.3C687.017 132.3 689.5 132.583 691.5 133.15C693.533 133.717 695.05 134.65 696.05 135.95C697.083 137.25 697.6 138.983 697.6 141.15C697.6 142.55 697.333 143.8 696.8 144.9C696.3 145.967 695.533 146.867 694.5 147.6C693.5 148.3 692.267 148.783 690.8 149.05V149.3C692.3 149.533 693.65 149.967 694.85 150.6C696.083 151.233 697.05 152.133 697.75 153.3C698.45 154.467 698.8 155.983 698.8 157.85C698.8 160.017 698.3 161.867 697.3 163.4C696.3 164.9 694.867 166.05 693 166.85C691.167 167.617 688.967 168 686.4 168H673.85V132.3H684.05ZM684.95 147.5C688.017 147.5 690.117 147.017 691.25 146.05C692.383 145.05 692.95 143.583 692.95 141.65C692.95 139.683 692.25 138.283 690.85 137.45C689.483 136.583 687.283 136.15 684.25 136.15H678.35V147.5H684.95ZM678.35 151.25V164.2H685.55C688.717 164.2 690.917 163.583 692.15 162.35C693.383 161.117 694 159.5 694 157.5C694 156.233 693.717 155.133 693.15 154.2C692.617 153.267 691.7 152.55 690.4 152.05C689.133 151.517 687.4 151.25 685.2 151.25H678.35ZM715.92 140.75C719.186 140.75 721.603 141.467 723.17 142.9C724.736 144.333 725.52 146.617 725.52 149.75V168H722.32L721.47 164.2H721.27C720.503 165.167 719.703 165.983 718.87 166.65C718.07 167.283 717.136 167.75 716.07 168.05C715.036 168.35 713.77 168.5 712.27 168.5C710.67 168.5 709.22 168.217 707.92 167.65C706.653 167.083 705.653 166.217 704.92 165.05C704.186 163.85 703.82 162.35 703.82 160.55C703.82 157.883 704.87 155.833 706.97 154.4C709.07 152.933 712.303 152.133 716.67 152L721.22 151.85V150.25C721.22 148.017 720.736 146.467 719.77 145.6C718.803 144.733 717.436 144.3 715.67 144.3C714.27 144.3 712.936 144.517 711.67 144.95C710.403 145.35 709.22 145.817 708.12 146.35L706.77 143.05C707.936 142.417 709.32 141.883 710.92 141.45C712.52 140.983 714.186 140.75 715.92 140.75ZM717.22 155.05C713.886 155.183 711.57 155.717 710.27 156.65C709.003 157.583 708.37 158.9 708.37 160.6C708.37 162.1 708.82 163.2 709.72 163.9C710.653 164.6 711.836 164.95 713.27 164.95C715.536 164.95 717.42 164.333 718.92 163.1C720.42 161.833 721.17 159.9 721.17 157.3V154.9L717.22 155.05ZM770.147 141.2V168H733.797V141.2H738.197V164.3H749.747V141.2H754.147V164.3H765.747V141.2H770.147ZM788.869 140.75C792.135 140.75 794.552 141.467 796.119 142.9C797.685 144.333 798.469 146.617 798.469 149.75V168H795.269L794.419 164.2H794.219C793.452 165.167 792.652 165.983 791.819 166.65C791.019 167.283 790.085 167.75 789.019 168.05C787.985 168.35 786.719 168.5 785.219 168.5C783.619 168.5 782.169 168.217 780.869 167.65C779.602 167.083 778.602 166.217 777.869 165.05C777.135 163.85 776.769 162.35 776.769 160.55C776.769 157.883 777.819 155.833 779.919 154.4C782.019 152.933 785.252 152.133 789.619 152L794.169 151.85V150.25C794.169 148.017 793.685 146.467 792.719 145.6C791.752 144.733 790.385 144.3 788.619 144.3C787.219 144.3 785.885 144.517 784.619 144.95C783.352 145.35 782.169 145.817 781.069 146.35L779.719 143.05C780.885 142.417 782.269 141.883 783.869 141.45C785.469 140.983 787.135 140.75 788.869 140.75ZM790.169 155.05C786.835 155.183 784.519 155.717 783.219 156.65C781.952 157.583 781.319 158.9 781.319 160.6C781.319 162.1 781.769 163.2 782.669 163.9C783.602 164.6 784.785 164.95 786.219 164.95C788.485 164.95 790.369 164.333 791.869 163.1C793.369 161.833 794.119 159.9 794.119 157.3V154.9L790.169 155.05ZM852.537 141.2V168H848.587V150.9C848.587 150.2 848.604 149.467 848.637 148.7C848.704 147.933 848.77 147.183 848.837 146.45H848.687L839.937 168H836.237L827.737 146.45H827.587C827.654 147.183 827.687 147.933 827.687 148.7C827.72 149.467 827.737 150.25 827.737 151.05V168H823.787V141.2H829.637L838.087 162.75L846.687 141.2H852.537ZM871.242 140.75C874.508 140.75 876.925 141.467 878.492 142.9C880.058 144.333 880.842 146.617 880.842 149.75V168H877.642L876.792 164.2H876.592C875.825 165.167 875.025 165.983 874.192 166.65C873.392 167.283 872.458 167.75 871.392 168.05C870.358 168.35 869.092 168.5 867.592 168.5C865.992 168.5 864.542 168.217 863.242 167.65C861.975 167.083 860.975 166.217 860.242 165.05C859.508 163.85 859.142 162.35 859.142 160.55C859.142 157.883 860.192 155.833 862.292 154.4C864.392 152.933 867.625 152.133 871.992 152L876.542 151.85V150.25C876.542 148.017 876.058 146.467 875.092 145.6C874.125 144.733 872.758 144.3 870.992 144.3C869.592 144.3 868.258 144.517 866.992 144.95C865.725 145.35 864.542 145.817 863.442 146.35L862.092 143.05C863.258 142.417 864.642 141.883 866.242 141.45C867.842 140.983 869.508 140.75 871.242 140.75ZM872.542 155.05C869.208 155.183 866.892 155.717 865.592 156.65C864.325 157.583 863.692 158.9 863.692 160.6C863.692 162.1 864.142 163.2 865.042 163.9C865.975 164.6 867.158 164.95 868.592 164.95C870.858 164.95 872.742 164.333 874.242 163.1C875.742 161.833 876.492 159.9 876.492 157.3V154.9L872.542 155.05ZM910.819 130.1C910.686 131.767 910.269 133.167 909.569 134.3C908.902 135.433 907.902 136.283 906.569 136.85C905.236 137.417 903.502 137.7 901.369 137.7C899.202 137.7 897.452 137.417 896.119 136.85C894.819 136.283 893.869 135.45 893.269 134.35C892.669 133.217 892.302 131.8 892.169 130.1H896.269C896.436 131.9 896.902 133.117 897.669 133.75C898.469 134.35 899.736 134.65 901.469 134.65C903.002 134.65 904.202 134.333 905.069 133.7C905.969 133.033 906.502 131.833 906.669 130.1H910.819ZM893.269 157.55C893.269 157.85 893.252 158.283 893.219 158.85C893.219 159.383 893.202 159.967 893.169 160.6C893.136 161.2 893.102 161.783 893.069 162.35C893.036 162.883 893.002 163.317 892.969 163.65L907.319 141.2H912.719V168H908.619V152.2C908.619 151.667 908.619 150.967 908.619 150.1C908.652 149.233 908.686 148.383 908.719 147.55C908.752 146.683 908.786 146.033 908.819 145.6L894.569 168H889.119V141.2H893.269V157.55ZM919.848 151.9C919.848 148 920.231 144.683 920.998 141.95C921.798 139.183 923.015 136.983 924.648 135.35C926.315 133.683 928.448 132.567 931.048 132C933.215 131.533 935.331 131.117 937.398 130.75C939.465 130.383 941.398 130.05 943.198 129.75L943.948 133.6C943.081 133.733 942.115 133.9 941.048 134.1C939.981 134.267 938.898 134.45 937.798 134.65C936.698 134.817 935.631 135 934.598 135.2C933.598 135.367 932.715 135.533 931.948 135.7C930.848 135.933 929.865 136.333 928.998 136.9C928.131 137.433 927.381 138.167 926.748 139.1C926.148 140.033 925.665 141.183 925.298 142.55C924.931 143.917 924.715 145.533 924.648 147.4H924.948C925.415 146.767 926.048 146.117 926.848 145.45C927.681 144.783 928.665 144.217 929.798 143.75C930.965 143.283 932.281 143.05 933.748 143.05C936.081 143.05 938.015 143.567 939.548 144.6C941.115 145.6 942.281 147 943.048 148.8C943.848 150.6 944.248 152.7 944.248 155.1C944.248 158.067 943.731 160.55 942.698 162.55C941.665 164.55 940.231 166.05 938.398 167.05C936.565 168.017 934.431 168.5 931.998 168.5C930.165 168.5 928.498 168.15 926.998 167.45C925.498 166.717 924.215 165.65 923.148 164.25C922.081 162.85 921.265 161.117 920.698 159.05C920.131 156.983 919.848 154.6 919.848 151.9ZM932.348 164.85C933.815 164.85 935.081 164.55 936.148 163.95C937.248 163.35 938.098 162.367 938.698 161C939.298 159.633 939.598 157.817 939.598 155.55C939.598 152.817 939.081 150.667 938.048 149.1C937.048 147.5 935.381 146.7 933.048 146.7C931.581 146.7 930.248 147.033 929.048 147.7C927.848 148.333 926.848 149.067 926.048 149.9C925.248 150.733 924.681 151.433 924.348 152C924.348 153.633 924.465 155.217 924.698 156.75C924.931 158.283 925.331 159.667 925.898 160.9C926.498 162.1 927.315 163.067 928.348 163.8C929.415 164.5 930.748 164.85 932.348 164.85ZM946.98 141.2H951.68L957.48 156.45C957.813 157.35 958.113 158.217 958.38 159.05C958.68 159.883 958.946 160.7 959.18 161.5C959.413 162.267 959.596 163.017 959.73 163.75H959.93C960.13 162.917 960.446 161.833 960.88 160.5C961.313 159.133 961.763 157.767 962.23 156.4L967.68 141.2H972.43L960.88 171.7C960.246 173.367 959.496 174.817 958.63 176.05C957.796 177.317 956.763 178.283 955.53 178.95C954.33 179.65 952.863 180 951.13 180C950.33 180 949.63 179.95 949.03 179.85C948.43 179.783 947.913 179.7 947.48 179.6V176.1C947.846 176.167 948.28 176.233 948.78 176.3C949.313 176.367 949.863 176.4 950.43 176.4C951.463 176.4 952.346 176.2 953.08 175.8C953.846 175.433 954.496 174.883 955.03 174.15C955.563 173.45 956.013 172.617 956.38 171.65L957.78 168.1L946.98 141.2ZM995.168 144.9H986.418V168H982.068V144.9H973.418V141.2H995.168V144.9ZM1004.85 141.2V152.35H1019.4V141.2H1023.8V168H1019.4V156.05H1004.85V168H1000.45V141.2H1004.85ZM1033.93 168H1028.83L1036.48 156.75C1035.45 156.483 1034.45 156.067 1033.48 155.5C1032.52 154.9 1031.73 154.083 1031.13 153.05C1030.53 151.983 1030.23 150.667 1030.23 149.1C1030.23 146.533 1031.1 144.583 1032.83 143.25C1034.57 141.883 1036.87 141.2 1039.73 141.2H1051.73V168H1047.33V157.35H1040.83L1033.93 168ZM1034.48 149.15C1034.48 150.683 1035.05 151.833 1036.18 152.6C1037.35 153.333 1038.97 153.7 1041.03 153.7H1047.33V144.85H1040.18C1038.15 144.85 1036.68 145.25 1035.78 146.05C1034.92 146.85 1034.48 147.883 1034.48 149.15ZM1093.1 141.2H1097.9L1086.45 154.1L1098.85 168H1093.75L1081.65 154.4V168H1077.25V141.2H1081.65V154.2L1093.1 141.2ZM1113.87 140.75C1117.14 140.75 1119.55 141.467 1121.12 142.9C1122.69 144.333 1123.47 146.617 1123.47 149.75V168H1120.27L1119.42 164.2H1119.22C1118.45 165.167 1117.65 165.983 1116.82 166.65C1116.02 167.283 1115.09 167.75 1114.02 168.05C1112.99 168.35 1111.72 168.5 1110.22 168.5C1108.62 168.5 1107.17 168.217 1105.87 167.65C1104.6 167.083 1103.6 166.217 1102.87 165.05C1102.14 163.85 1101.77 162.35 1101.77 160.55C1101.77 157.883 1102.82 155.833 1104.92 154.4C1107.02 152.933 1110.25 152.133 1114.62 152L1119.17 151.85V150.25C1119.17 148.017 1118.69 146.467 1117.72 145.6C1116.75 144.733 1115.39 144.3 1113.62 144.3C1112.22 144.3 1110.89 144.517 1109.62 144.95C1108.35 145.35 1107.17 145.817 1106.07 146.35L1104.72 143.05C1105.89 142.417 1107.27 141.883 1108.87 141.45C1110.47 140.983 1112.14 140.75 1113.87 140.75ZM1115.17 155.05C1111.84 155.183 1109.52 155.717 1108.22 156.65C1106.95 157.583 1106.32 158.9 1106.32 160.6C1106.32 162.1 1106.77 163.2 1107.67 163.9C1108.6 164.6 1109.79 164.95 1111.22 164.95C1113.49 164.95 1115.37 164.333 1116.87 163.1C1118.37 161.833 1119.12 159.9 1119.12 157.3V154.9L1115.17 155.05ZM1144.5 140.7C1147.8 140.7 1150.45 141.85 1152.45 144.15C1154.48 146.45 1155.5 149.917 1155.5 154.55C1155.5 157.583 1155.03 160.15 1154.1 162.25C1153.2 164.317 1151.91 165.883 1150.25 166.95C1148.61 167.983 1146.68 168.5 1144.45 168.5C1143.08 168.5 1141.86 168.317 1140.8 167.95C1139.73 167.583 1138.81 167.117 1138.05 166.55C1137.31 165.95 1136.68 165.3 1136.15 164.6H1135.85C1135.91 165.167 1135.98 165.883 1136.05 166.75C1136.11 167.617 1136.15 168.367 1136.15 169V180H1131.75V141.2H1135.35L1135.95 144.85H1136.15C1136.68 144.083 1137.31 143.383 1138.05 142.75C1138.81 142.117 1139.71 141.617 1140.75 141.25C1141.81 140.883 1143.06 140.7 1144.5 140.7ZM1143.7 144.4C1141.9 144.4 1140.45 144.75 1139.35 145.45C1138.25 146.117 1137.45 147.133 1136.95 148.5C1136.45 149.867 1136.18 151.6 1136.15 153.7V154.55C1136.15 156.75 1136.38 158.617 1136.85 160.15C1137.31 161.683 1138.1 162.85 1139.2 163.65C1140.33 164.45 1141.86 164.85 1143.8 164.85C1145.43 164.85 1146.76 164.4 1147.8 163.5C1148.86 162.6 1149.65 161.383 1150.15 159.85C1150.68 158.283 1150.95 156.5 1150.95 154.5C1150.95 151.433 1150.35 148.983 1149.15 147.15C1147.98 145.317 1146.16 144.4 1143.7 144.4ZM1180.52 144.9H1171.77V168H1167.42V144.9H1158.77V141.2H1180.52V144.9ZM1195.95 140.75C1199.22 140.75 1201.63 141.467 1203.2 142.9C1204.77 144.333 1205.55 146.617 1205.55 149.75V168H1202.35L1201.5 164.2H1201.3C1200.53 165.167 1199.73 165.983 1198.9 166.65C1198.1 167.283 1197.17 167.75 1196.1 168.05C1195.07 168.35 1193.8 168.5 1192.3 168.5C1190.7 168.5 1189.25 168.217 1187.95 167.65C1186.68 167.083 1185.68 166.217 1184.95 165.05C1184.22 163.85 1183.85 162.35 1183.85 160.55C1183.85 157.883 1184.9 155.833 1187 154.4C1189.1 152.933 1192.33 152.133 1196.7 152L1201.25 151.85V150.25C1201.25 148.017 1200.77 146.467 1199.8 145.6C1198.83 144.733 1197.47 144.3 1195.7 144.3C1194.3 144.3 1192.97 144.517 1191.7 144.95C1190.43 145.35 1189.25 145.817 1188.15 146.35L1186.8 143.05C1187.97 142.417 1189.35 141.883 1190.95 141.45C1192.55 140.983 1194.22 140.75 1195.95 140.75ZM1197.25 155.05C1193.92 155.183 1191.6 155.717 1190.3 156.65C1189.03 157.583 1188.4 158.9 1188.4 160.6C1188.4 162.1 1188.85 163.2 1189.75 163.9C1190.68 164.6 1191.87 164.95 1193.3 164.95C1195.57 164.95 1197.45 164.333 1198.95 163.1C1200.45 161.833 1201.2 159.9 1201.2 157.3V154.9L1197.25 155.05Z" fill="white"/>
<path d="M771.15 416.25C769.7 416.25 768.475 415.95 767.475 415.35C766.492 414.75 765.683 413.833 765.05 412.6L768.15 411.05C768.367 411.783 768.708 412.375 769.175 412.825C769.642 413.275 770.325 413.5 771.225 413.5C771.842 413.5 772.367 413.392 772.8 413.175C773.233 412.958 773.567 412.642 773.8 412.225C774.05 411.808 774.175 411.3 774.175 410.7C774.175 410.1 774.058 409.6 773.825 409.2C773.608 408.783 773.292 408.475 772.875 408.275C772.458 408.058 771.933 407.95 771.3 407.95C770.867 407.95 770.458 407.992 770.075 408.075C769.708 408.158 769.375 408.292 769.075 408.475C768.775 408.642 768.508 408.867 768.275 409.15L765.575 408.65L766.6 399.5H776.575V402.275H769.2L768.7 406.3L768.625 406.625H768.675C769.025 406.225 769.5 405.917 770.1 405.7C770.717 405.483 771.417 405.375 772.2 405.375C773.283 405.375 774.208 405.592 774.975 406.025C775.742 406.458 776.333 407.067 776.75 407.85C777.167 408.617 777.375 409.5 777.375 410.5C777.375 411.45 777.217 412.292 776.9 413.025C776.583 413.742 776.133 414.342 775.55 414.825C774.983 415.292 774.325 415.65 773.575 415.9C772.825 416.133 772.017 416.25 771.15 416.25ZM789.726 416V405.55C789.726 405.167 789.726 404.775 789.726 404.375C789.742 403.958 789.759 403.533 789.776 403.1C789.209 403.617 788.576 404.067 787.876 404.45C787.176 404.833 786.459 405.1 785.726 405.25L785.276 402.35C785.659 402.317 786.084 402.208 786.551 402.025C787.034 401.825 787.517 401.592 788.001 401.325C788.501 401.042 788.951 400.75 789.351 400.45C789.767 400.133 790.084 399.817 790.301 399.5H793.101V416H789.726ZM809.826 399.25C810.71 399.25 811.51 399.375 812.226 399.625C812.943 399.858 813.568 400.242 814.101 400.775C814.651 401.292 815.076 401.983 815.376 402.85L812.476 404.2C812.276 403.55 811.943 403.042 811.476 402.675C811.026 402.292 810.401 402.1 809.601 402.1C809.035 402.1 808.526 402.233 808.076 402.5C807.643 402.767 807.268 403.15 806.951 403.65C806.635 404.15 806.393 404.75 806.226 405.45C806.06 406.133 805.976 406.892 805.976 407.725C805.976 407.775 805.976 407.833 805.976 407.9C805.976 407.95 805.976 408.033 805.976 408.15L806.051 408.25C806.235 407.667 806.551 407.183 807.001 406.8C807.468 406.417 807.985 406.133 808.551 405.95C809.135 405.767 809.71 405.675 810.276 405.675C811.326 405.675 812.251 405.883 813.051 406.3C813.868 406.7 814.501 407.283 814.951 408.05C815.418 408.817 815.651 409.733 815.651 410.8C815.651 411.9 815.401 412.867 814.901 413.7C814.418 414.517 813.726 415.15 812.826 415.6C811.943 416.033 810.885 416.25 809.651 416.25C808.251 416.25 807.035 415.917 806.001 415.25C804.985 414.583 804.193 413.625 803.626 412.375C803.076 411.125 802.801 409.617 802.801 407.85C802.801 405.933 803.11 404.342 803.726 403.075C804.343 401.792 805.185 400.833 806.251 400.2C807.318 399.567 808.51 399.25 809.826 399.25ZM809.601 408.2C809.051 408.2 808.568 408.317 808.151 408.55C807.735 408.767 807.401 409.075 807.151 409.475C806.901 409.858 806.776 410.308 806.776 410.825C806.776 411.342 806.901 411.8 807.151 412.2C807.418 412.6 807.76 412.917 808.176 413.15C808.61 413.383 809.085 413.5 809.601 413.5C810.485 413.5 811.168 413.267 811.651 412.8C812.151 412.333 812.401 411.675 812.401 410.825C812.401 410.292 812.293 409.825 812.076 409.425C811.86 409.025 811.543 408.725 811.126 408.525C810.71 408.308 810.201 408.2 809.601 408.2ZM830.808 399.3C831.992 399.3 833.017 399.483 833.883 399.85C834.767 400.2 835.442 400.708 835.908 401.375C836.392 402.025 836.633 402.817 836.633 403.75C836.633 404.617 836.417 405.367 835.983 406C835.567 406.633 834.958 407.117 834.158 407.45V407.475C835.125 407.825 835.883 408.333 836.433 409C836.983 409.667 837.258 410.508 837.258 411.525C837.258 412.492 836.992 413.325 836.458 414.025C835.942 414.725 835.2 415.275 834.233 415.675C833.283 416.058 832.142 416.25 830.808 416.25C829.492 416.25 828.35 416.058 827.383 415.675C826.433 415.275 825.692 414.725 825.158 414.025C824.642 413.325 824.383 412.492 824.383 411.525C824.383 410.525 824.658 409.692 825.208 409.025C825.758 408.342 826.525 407.825 827.508 407.475V407.45C826.708 407.133 826.092 406.658 825.658 406.025C825.225 405.375 825.008 404.617 825.008 403.75C825.008 402.817 825.242 402.025 825.708 401.375C826.192 400.708 826.875 400.2 827.758 399.85C828.642 399.483 829.658 399.3 830.808 399.3ZM830.833 401.95C830.05 401.95 829.425 402.142 828.958 402.525C828.492 402.908 828.258 403.442 828.258 404.125C828.258 404.808 828.492 405.342 828.958 405.725C829.425 406.108 830.05 406.3 830.833 406.3C831.6 406.3 832.208 406.108 832.658 405.725C833.125 405.342 833.358 404.808 833.358 404.125C833.358 403.442 833.133 402.908 832.683 402.525C832.233 402.142 831.617 401.95 830.833 401.95ZM830.833 413.575C831.467 413.575 832.008 413.483 832.458 413.3C832.908 413.117 833.25 412.842 833.483 412.475C833.733 412.108 833.858 411.675 833.858 411.175C833.858 410.675 833.733 410.242 833.483 409.875C833.25 409.508 832.9 409.233 832.433 409.05C831.983 408.85 831.45 408.75 830.833 408.75C830.217 408.75 829.675 408.85 829.208 409.05C828.742 409.233 828.383 409.508 828.133 409.875C827.883 410.242 827.758 410.675 827.758 411.175C827.758 411.675 827.883 412.108 828.133 412.475C828.383 412.842 828.733 413.117 829.183 413.3C829.65 413.483 830.2 413.575 830.833 413.575ZM858.82 399.5H871.895V402.125C870.512 403.508 869.412 404.933 868.595 406.4C867.779 407.867 867.187 409.392 866.82 410.975C866.47 412.558 866.295 414.233 866.295 416H862.87C862.87 414.167 863.095 412.408 863.545 410.725C864.012 409.025 864.72 407.408 865.67 405.875C866.637 404.325 867.862 402.842 869.345 401.425L870.045 402.325H858.82V399.5ZM886.138 416V412.125H878.088V409.875C878.172 409.708 878.288 409.508 878.438 409.275C878.605 409.025 878.788 408.742 878.988 408.425L885.138 399.5H889.263V409.625H891.938V412.125H889.263V416H886.138ZM881.038 409.625H886.163V404.175C886.163 403.825 886.172 403.45 886.188 403.05C886.205 402.65 886.222 402.258 886.238 401.875H886.188C886.005 402.242 885.78 402.642 885.513 403.075C885.263 403.492 885.03 403.867 884.813 404.2L881.363 409.15C881.313 409.233 881.255 409.317 881.188 409.4C881.138 409.467 881.088 409.542 881.038 409.625ZM906.209 416.25C904.759 416.25 903.534 415.95 902.534 415.35C901.55 414.75 900.742 413.833 900.109 412.6L903.209 411.05C903.425 411.783 903.767 412.375 904.234 412.825C904.7 413.275 905.384 413.5 906.284 413.5C906.9 413.5 907.425 413.392 907.859 413.175C908.292 412.958 908.625 412.642 908.859 412.225C909.109 411.808 909.234 411.3 909.234 410.7C909.234 410.1 909.117 409.6 908.884 409.2C908.667 408.783 908.35 408.475 907.934 408.275C907.517 408.058 906.992 407.95 906.359 407.95C905.925 407.95 905.517 407.992 905.134 408.075C904.767 408.158 904.434 408.292 904.134 408.475C903.834 408.642 903.567 408.867 903.334 409.15L900.634 408.65L901.659 399.5H911.634V402.275H904.259L903.759 406.3L903.684 406.625H903.734C904.084 406.225 904.559 405.917 905.159 405.7C905.775 405.483 906.475 405.375 907.259 405.375C908.342 405.375 909.267 405.592 910.034 406.025C910.8 406.458 911.392 407.067 911.809 407.85C912.225 408.617 912.434 409.5 912.434 410.5C912.434 411.45 912.275 412.292 911.959 413.025C911.642 413.742 911.192 414.342 910.609 414.825C910.042 415.292 909.384 415.65 908.634 415.9C907.884 416.133 907.075 416.25 906.209 416.25ZM927.809 416.25C925.693 416.25 924.059 415.533 922.909 414.1C921.776 412.667 921.209 410.55 921.209 407.75C921.209 404.95 921.776 402.833 922.909 401.4C924.059 399.967 925.693 399.25 927.809 399.25C929.926 399.25 931.551 399.967 932.684 401.4C933.834 402.833 934.409 404.95 934.409 407.75C934.409 410.55 933.834 412.667 932.684 414.1C931.551 415.533 929.926 416.25 927.809 416.25ZM927.809 413.475C928.526 413.475 929.109 413.275 929.559 412.875C930.026 412.458 930.376 411.833 930.609 411C930.843 410.15 930.959 409.067 930.959 407.75C930.959 406.433 930.843 405.358 930.609 404.525C930.376 403.675 930.026 403.05 929.559 402.65C929.109 402.233 928.526 402.025 927.809 402.025C927.093 402.025 926.501 402.233 926.034 402.65C925.568 403.05 925.218 403.675 924.984 404.525C924.768 405.358 924.659 406.433 924.659 407.75C924.659 409.067 924.768 410.15 924.984 411C925.218 411.833 925.568 412.458 926.034 412.875C926.501 413.275 927.093 413.475 927.809 413.475ZM960.527 416V405.55C960.527 405.167 960.527 404.775 960.527 404.375C960.543 403.958 960.56 403.533 960.577 403.1C960.01 403.617 959.377 404.067 958.677 404.45C957.977 404.833 957.26 405.1 956.527 405.25L956.077 402.35C956.46 402.317 956.885 402.208 957.352 402.025C957.835 401.825 958.318 401.592 958.802 401.325C959.302 401.042 959.752 400.75 960.152 400.45C960.568 400.133 960.885 399.817 961.102 399.5H963.902V416H960.527ZM980.027 399.3C981.21 399.3 982.235 399.483 983.102 399.85C983.985 400.2 984.66 400.708 985.127 401.375C985.61 402.025 985.852 402.817 985.852 403.75C985.852 404.617 985.635 405.367 985.202 406C984.785 406.633 984.177 407.117 983.377 407.45V407.475C984.344 407.825 985.102 408.333 985.652 409C986.202 409.667 986.477 410.508 986.477 411.525C986.477 412.492 986.21 413.325 985.677 414.025C985.16 414.725 984.419 415.275 983.452 415.675C982.502 416.058 981.36 416.25 980.027 416.25C978.71 416.25 977.569 416.058 976.602 415.675C975.652 415.275 974.91 414.725 974.377 414.025C973.86 413.325 973.602 412.492 973.602 411.525C973.602 410.525 973.877 409.692 974.427 409.025C974.977 408.342 975.744 407.825 976.727 407.475V407.45C975.927 407.133 975.31 406.658 974.877 406.025C974.444 405.375 974.227 404.617 974.227 403.75C974.227 402.817 974.46 402.025 974.927 401.375C975.41 400.708 976.094 400.2 976.977 399.85C977.86 399.483 978.877 399.3 980.027 399.3ZM980.052 401.95C979.269 401.95 978.644 402.142 978.177 402.525C977.71 402.908 977.477 403.442 977.477 404.125C977.477 404.808 977.71 405.342 978.177 405.725C978.644 406.108 979.269 406.3 980.052 406.3C980.819 406.3 981.427 406.108 981.877 405.725C982.344 405.342 982.577 404.808 982.577 404.125C982.577 403.442 982.352 402.908 981.902 402.525C981.452 402.142 980.835 401.95 980.052 401.95ZM980.052 413.575C980.685 413.575 981.227 413.483 981.677 413.3C982.127 413.117 982.469 412.842 982.702 412.475C982.952 412.108 983.077 411.675 983.077 411.175C983.077 410.675 982.952 410.242 982.702 409.875C982.469 409.508 982.119 409.233 981.652 409.05C981.202 408.85 980.669 408.75 980.052 408.75C979.435 408.75 978.894 408.85 978.427 409.05C977.96 409.233 977.602 409.508 977.352 409.875C977.102 410.242 976.977 410.675 976.977 411.175C976.977 411.675 977.102 412.108 977.352 412.475C977.602 412.842 977.952 413.117 978.402 413.3C978.869 413.483 979.419 413.575 980.052 413.575ZM1001.21 416.25C999.56 416.25 998.152 415.908 996.985 415.225C995.835 414.525 995.043 413.525 994.61 412.225L997.86 410.8C997.977 411.4 998.168 411.9 998.435 412.3C998.702 412.683 999.06 412.975 999.51 413.175C999.977 413.375 1000.53 413.475 1001.16 413.475C1001.73 413.475 1002.2 413.375 1002.59 413.175C1002.99 412.975 1003.29 412.692 1003.51 412.325C1003.73 411.958 1003.84 411.542 1003.84 411.075C1003.84 410.575 1003.74 410.167 1003.54 409.85C1003.35 409.533 1003.07 409.308 1002.69 409.175C1002.3 409.025 1001.82 408.95 1001.24 408.95C1001.02 408.95 1000.81 408.958 1000.61 408.975C1000.43 408.975 1000.22 408.992 999.985 409.025V406.5C1000.12 406.517 1000.25 406.533 1000.39 406.55C1000.54 406.55 1000.69 406.55 1000.84 406.55C1001.77 406.55 1002.44 406.367 1002.84 406C1003.25 405.617 1003.46 405.008 1003.46 404.175C1003.46 403.492 1003.25 402.967 1002.84 402.6C1002.44 402.217 1001.86 402.025 1001.11 402.025C1000.31 402.025 999.677 402.225 999.21 402.625C998.743 403.008 998.418 403.6 998.235 404.4L995.16 403.25C995.36 402.417 995.743 401.7 996.31 401.1C996.893 400.5 997.61 400.042 998.46 399.725C999.31 399.392 1000.25 399.225 1001.29 399.225C1002.52 399.225 1003.54 399.417 1004.36 399.8C1005.19 400.183 1005.82 400.708 1006.24 401.375C1006.67 402.042 1006.89 402.808 1006.89 403.675C1006.89 404.358 1006.78 404.942 1006.56 405.425C1006.36 405.892 1006.09 406.292 1005.76 406.625C1005.44 406.942 1005.11 407.183 1004.76 407.35C1004.41 407.517 1004.09 407.617 1003.79 407.65V407.725C1004.17 407.742 1004.56 407.825 1004.96 407.975C1005.36 408.108 1005.73 408.317 1006.06 408.6C1006.41 408.883 1006.69 409.25 1006.91 409.7C1007.13 410.133 1007.24 410.65 1007.24 411.25C1007.24 412.25 1006.97 413.133 1006.44 413.9C1005.92 414.65 1005.21 415.233 1004.31 415.65C1003.41 416.05 1002.38 416.25 1001.21 416.25ZM1016.38 416V413.675C1017.88 412.658 1019.15 411.742 1020.18 410.925C1021.23 410.092 1022.07 409.325 1022.71 408.625C1023.36 407.908 1023.82 407.233 1024.11 406.6C1024.41 405.967 1024.56 405.333 1024.56 404.7C1024.56 403.933 1024.32 403.308 1023.86 402.825C1023.39 402.325 1022.73 402.075 1021.88 402.075C1020.95 402.075 1020.22 402.392 1019.68 403.025C1019.17 403.658 1018.88 404.558 1018.83 405.725L1015.86 404.6C1015.94 403.467 1016.24 402.508 1016.76 401.725C1017.29 400.925 1018.01 400.317 1018.91 399.9C1019.82 399.467 1020.87 399.25 1022.06 399.25C1023.07 399.25 1023.95 399.392 1024.68 399.675C1025.43 399.958 1026.05 400.35 1026.53 400.85C1027.03 401.333 1027.41 401.892 1027.66 402.525C1027.91 403.158 1028.03 403.817 1028.03 404.5C1028.03 405.567 1027.77 406.575 1027.23 407.525C1026.72 408.475 1025.92 409.417 1024.83 410.35C1023.75 411.283 1022.37 412.267 1020.71 413.3V413.325C1020.96 413.308 1021.26 413.292 1021.61 413.275C1021.97 413.258 1022.35 413.25 1022.73 413.25C1023.12 413.233 1023.45 413.225 1023.73 413.225H1028.28V416H1016.38ZM1056.82 416.25C1055.37 416.25 1054.14 415.95 1053.14 415.35C1052.16 414.75 1051.35 413.833 1050.72 412.6L1053.82 411.05C1054.04 411.783 1054.38 412.375 1054.84 412.825C1055.31 413.275 1055.99 413.5 1056.89 413.5C1057.51 413.5 1058.04 413.392 1058.47 413.175C1058.9 412.958 1059.24 412.642 1059.47 412.225C1059.72 411.808 1059.84 411.3 1059.84 410.7C1059.84 410.1 1059.73 409.6 1059.49 409.2C1059.28 408.783 1058.96 408.475 1058.54 408.275C1058.13 408.058 1057.6 407.95 1056.97 407.95C1056.54 407.95 1056.13 407.992 1055.74 408.075C1055.38 408.158 1055.04 408.292 1054.74 408.475C1054.44 408.642 1054.18 408.867 1053.94 409.15L1051.24 408.65L1052.27 399.5H1062.24V402.275H1054.87L1054.37 406.3L1054.29 406.625H1054.34C1054.69 406.225 1055.17 405.917 1055.77 405.7C1056.39 405.483 1057.09 405.375 1057.87 405.375C1058.95 405.375 1059.88 405.592 1060.64 406.025C1061.41 406.458 1062 407.067 1062.42 407.85C1062.84 408.617 1063.04 409.5 1063.04 410.5C1063.04 411.45 1062.89 412.292 1062.57 413.025C1062.25 413.742 1061.8 414.342 1061.22 414.825C1060.65 415.292 1059.99 415.65 1059.24 415.9C1058.49 416.133 1057.69 416.25 1056.82 416.25ZM1078.42 416.25C1076.3 416.25 1074.67 415.533 1073.52 414.1C1072.39 412.667 1071.82 410.55 1071.82 407.75C1071.82 404.95 1072.39 402.833 1073.52 401.4C1074.67 399.967 1076.3 399.25 1078.42 399.25C1080.54 399.25 1082.16 399.967 1083.29 401.4C1084.44 402.833 1085.02 404.95 1085.02 407.75C1085.02 410.55 1084.44 412.667 1083.29 414.1C1082.16 415.533 1080.54 416.25 1078.42 416.25ZM1078.42 413.475C1079.14 413.475 1079.72 413.275 1080.17 412.875C1080.64 412.458 1080.99 411.833 1081.22 411C1081.45 410.15 1081.57 409.067 1081.57 407.75C1081.57 406.433 1081.45 405.358 1081.22 404.525C1080.99 403.675 1080.64 403.05 1080.17 402.65C1079.72 402.233 1079.14 402.025 1078.42 402.025C1077.7 402.025 1077.11 402.233 1076.64 402.65C1076.18 403.05 1075.83 403.675 1075.59 404.525C1075.38 405.358 1075.27 406.433 1075.27 407.75C1075.27 409.067 1075.38 410.15 1075.59 411C1075.83 411.833 1076.18 412.458 1076.64 412.875C1077.11 413.275 1077.7 413.475 1078.42 413.475ZM1099.67 416.25C1098.22 416.25 1096.99 415.95 1095.99 415.35C1095.01 414.75 1094.2 413.833 1093.57 412.6L1096.67 411.05C1096.88 411.783 1097.22 412.375 1097.69 412.825C1098.16 413.275 1098.84 413.5 1099.74 413.5C1100.36 413.5 1100.88 413.392 1101.32 413.175C1101.75 412.958 1102.08 412.642 1102.32 412.225C1102.57 411.808 1102.69 411.3 1102.69 410.7C1102.69 410.1 1102.57 409.6 1102.34 409.2C1102.12 408.783 1101.81 408.475 1101.39 408.275C1100.97 408.058 1100.45 407.95 1099.82 407.95C1099.38 407.95 1098.97 407.992 1098.59 408.075C1098.22 408.158 1097.89 408.292 1097.59 408.475C1097.29 408.642 1097.02 408.867 1096.79 409.15L1094.09 408.65L1095.12 399.5H1105.09V402.275H1097.72L1097.22 406.3L1097.14 406.625H1097.19C1097.54 406.225 1098.02 405.917 1098.62 405.7C1099.23 405.483 1099.93 405.375 1100.72 405.375C1101.8 405.375 1102.72 405.592 1103.49 406.025C1104.26 406.458 1104.85 407.067 1105.27 407.85C1105.68 408.617 1105.89 409.5 1105.89 410.5C1105.89 411.45 1105.73 412.292 1105.42 413.025C1105.1 413.742 1104.65 414.342 1104.07 414.825C1103.5 415.292 1102.84 415.65 1102.09 415.9C1101.34 416.133 1100.53 416.25 1099.67 416.25ZM1121.27 416.25C1119.15 416.25 1117.52 415.533 1116.37 414.1C1115.23 412.667 1114.67 410.55 1114.67 407.75C1114.67 404.95 1115.23 402.833 1116.37 401.4C1117.52 399.967 1119.15 399.25 1121.27 399.25C1123.38 399.25 1125.01 399.967 1126.14 401.4C1127.29 402.833 1127.87 404.95 1127.87 407.75C1127.87 410.55 1127.29 412.667 1126.14 414.1C1125.01 415.533 1123.38 416.25 1121.27 416.25ZM1121.27 413.475C1121.98 413.475 1122.57 413.275 1123.02 412.875C1123.48 412.458 1123.83 411.833 1124.07 411C1124.3 410.15 1124.42 409.067 1124.42 407.75C1124.42 406.433 1124.3 405.358 1124.07 404.525C1123.83 403.675 1123.48 403.05 1123.02 402.65C1122.57 402.233 1121.98 402.025 1121.27 402.025C1120.55 402.025 1119.96 402.233 1119.49 402.65C1119.02 403.05 1118.67 403.675 1118.44 404.525C1118.22 405.358 1118.12 406.433 1118.12 407.75C1118.12 409.067 1118.22 410.15 1118.44 411C1118.67 411.833 1119.02 412.458 1119.49 412.875C1119.96 413.275 1120.55 413.475 1121.27 413.475Z" fill="white"/>
<path d="M750.8 490.62C750.52 491.367 750.12 492.013 749.6 492.56C749.08 493.093 748.467 493.5 747.76 493.78C747.067 494.06 746.307 494.2 745.48 494.2C744.227 494.2 743.14 493.927 742.22 493.38C741.313 492.82 740.607 492.033 740.1 491.02C739.607 490.007 739.36 488.8 739.36 487.4C739.36 486 739.607 484.793 740.1 483.78C740.607 482.767 741.313 481.987 742.22 481.44C743.14 480.88 744.213 480.6 745.44 480.6C746.293 480.6 747.053 480.72 747.72 480.96C748.387 481.187 748.953 481.533 749.42 482C749.9 482.453 750.28 483.013 750.56 483.68L748.98 484.42C748.687 483.66 748.26 483.087 747.7 482.7C747.153 482.3 746.44 482.1 745.56 482.1C744.667 482.1 743.88 482.313 743.2 482.74C742.52 483.153 741.987 483.753 741.6 484.54C741.227 485.327 741.04 486.28 741.04 487.4C741.04 488.507 741.22 489.46 741.58 490.26C741.94 491.047 742.453 491.653 743.12 492.08C743.787 492.493 744.573 492.7 745.48 492.7C746.36 492.7 747.127 492.48 747.78 492.04C748.433 491.587 748.907 490.913 749.2 490.02L750.8 490.62ZM759.411 487.54C759.411 486.793 759.211 486.22 758.811 485.82C758.411 485.407 757.844 485.2 757.111 485.2C756.418 485.2 755.831 485.353 755.351 485.66C754.871 485.953 754.518 486.433 754.291 487.1L752.991 486.3C753.258 485.553 753.751 484.953 754.471 484.5C755.191 484.033 756.084 483.8 757.151 483.8C757.871 483.8 758.524 483.927 759.111 484.18C759.698 484.42 760.158 484.793 760.491 485.3C760.838 485.793 761.011 486.433 761.011 487.22V492.06C761.011 492.54 761.264 492.78 761.771 492.78C762.024 492.78 762.271 492.747 762.511 492.68L762.431 493.94C762.164 494.073 761.818 494.14 761.391 494.14C761.004 494.14 760.658 494.067 760.351 493.92C760.044 493.773 759.804 493.553 759.631 493.26C759.458 492.953 759.371 492.573 759.371 492.12V491.92L759.771 491.98C759.611 492.5 759.338 492.927 758.951 493.26C758.564 493.58 758.131 493.82 757.651 493.98C757.171 494.127 756.698 494.2 756.231 494.2C755.644 494.2 755.098 494.1 754.591 493.9C754.084 493.7 753.678 493.4 753.371 493C753.078 492.587 752.931 492.08 752.931 491.48C752.931 490.733 753.178 490.12 753.671 489.64C754.178 489.147 754.878 488.813 755.771 488.64L759.731 487.86V489.18L756.511 489.84C755.858 489.973 755.371 490.16 755.051 490.4C754.731 490.64 754.571 490.973 754.571 491.4C754.571 491.813 754.731 492.153 755.051 492.42C755.384 492.673 755.851 492.8 756.451 492.8C756.838 492.8 757.204 492.753 757.551 492.66C757.911 492.553 758.231 492.4 758.511 492.2C758.791 491.987 759.011 491.727 759.171 491.42C759.331 491.1 759.411 490.727 759.411 490.3V487.54ZM764.899 494V484H766.199L766.419 485.64C766.699 485.027 767.106 484.567 767.639 484.26C768.186 483.953 768.846 483.8 769.619 483.8C769.792 483.8 769.979 483.813 770.179 483.84C770.392 483.867 770.572 483.92 770.719 484L770.439 485.46C770.292 485.407 770.132 485.367 769.959 485.34C769.786 485.313 769.539 485.3 769.219 485.3C768.806 485.3 768.386 485.42 767.959 485.66C767.546 485.9 767.199 486.267 766.919 486.76C766.639 487.24 766.499 487.853 766.499 488.6V494H764.899ZM776.651 494.2C775.824 494.2 775.064 493.993 774.371 493.58C773.677 493.167 773.124 492.573 772.711 491.8C772.297 491.013 772.091 490.08 772.091 489C772.091 487.893 772.311 486.953 772.751 486.18C773.191 485.407 773.771 484.82 774.491 484.42C775.211 484.007 775.984 483.8 776.811 483.8C777.637 483.8 778.351 484.013 778.951 484.44C779.564 484.867 779.971 485.433 780.171 486.14L779.971 486.28V479.4H781.571V494H780.171L780.031 491.58L780.251 491.46C780.157 492.047 779.931 492.547 779.571 492.96C779.224 493.36 778.791 493.667 778.271 493.88C777.764 494.093 777.224 494.2 776.651 494.2ZM776.811 492.8C777.451 492.8 778.004 492.64 778.471 492.32C778.951 492 779.317 491.547 779.571 490.96C779.837 490.36 779.971 489.66 779.971 488.86C779.971 488.1 779.837 487.447 779.571 486.9C779.317 486.353 778.957 485.933 778.491 485.64C778.037 485.347 777.504 485.2 776.891 485.2C775.877 485.2 775.091 485.547 774.531 486.24C773.971 486.933 773.691 487.853 773.691 489C773.691 490.147 773.964 491.067 774.511 491.76C775.057 492.453 775.824 492.8 776.811 492.8ZM802.766 480.8V494H801.166V480.8H802.766ZM794.006 480.8V494H792.406V480.8H794.006ZM801.906 486.56V488.06H793.246V486.56H801.906ZM810.777 483.8C811.724 483.8 812.557 484.007 813.277 484.42C814.011 484.833 814.584 485.433 814.997 486.22C815.411 486.993 815.617 487.92 815.617 489C815.617 490.08 815.411 491.013 814.997 491.8C814.584 492.573 814.011 493.167 813.277 493.58C812.557 493.993 811.724 494.2 810.777 494.2C809.844 494.2 809.011 493.993 808.277 493.58C807.544 493.167 806.971 492.573 806.557 491.8C806.144 491.013 805.937 490.08 805.937 489C805.937 487.92 806.144 486.993 806.557 486.22C806.971 485.433 807.544 484.833 808.277 484.42C809.011 484.007 809.844 483.8 810.777 483.8ZM810.777 485.18C810.097 485.18 809.517 485.333 809.037 485.64C808.557 485.947 808.184 486.387 807.917 486.96C807.664 487.52 807.537 488.2 807.537 489C807.537 489.787 807.664 490.467 807.917 491.04C808.184 491.613 808.557 492.053 809.037 492.36C809.517 492.667 810.097 492.82 810.777 492.82C811.457 492.82 812.037 492.667 812.517 492.36C812.997 492.053 813.364 491.613 813.617 491.04C813.884 490.467 814.017 489.787 814.017 489C814.017 488.2 813.884 487.52 813.617 486.96C813.364 486.387 812.997 485.947 812.517 485.64C812.037 485.333 811.457 485.18 810.777 485.18ZM820.15 479.4V491.46C820.15 491.967 820.243 492.32 820.43 492.52C820.616 492.707 820.916 492.8 821.33 492.8C821.596 492.8 821.816 492.78 821.99 492.74C822.163 492.7 822.396 492.627 822.69 492.52L822.43 493.92C822.216 494.013 821.983 494.08 821.73 494.12C821.476 494.173 821.216 494.2 820.95 494.2C820.136 494.2 819.53 493.98 819.13 493.54C818.743 493.1 818.55 492.427 818.55 491.52V479.4H820.15ZM828.643 494.2C827.816 494.2 827.056 493.993 826.363 493.58C825.669 493.167 825.116 492.573 824.703 491.8C824.289 491.013 824.083 490.08 824.083 489C824.083 487.893 824.303 486.953 824.743 486.18C825.183 485.407 825.763 484.82 826.483 484.42C827.203 484.007 827.976 483.8 828.803 483.8C829.629 483.8 830.343 484.013 830.943 484.44C831.556 484.867 831.963 485.433 832.163 486.14L831.963 486.28V479.4H833.563V494H832.163L832.023 491.58L832.243 491.46C832.149 492.047 831.923 492.547 831.563 492.96C831.216 493.36 830.783 493.667 830.263 493.88C829.756 494.093 829.216 494.2 828.643 494.2ZM828.803 492.8C829.443 492.8 829.996 492.64 830.463 492.32C830.943 492 831.309 491.547 831.563 490.96C831.829 490.36 831.963 489.66 831.963 488.86C831.963 488.1 831.829 487.447 831.563 486.9C831.309 486.353 830.949 485.933 830.483 485.64C830.029 485.347 829.496 485.2 828.883 485.2C827.869 485.2 827.083 485.547 826.523 486.24C825.963 486.933 825.683 487.853 825.683 489C825.683 490.147 825.956 491.067 826.503 491.76C827.049 492.453 827.816 492.8 828.803 492.8ZM841.462 494.2C840.515 494.2 839.669 493.993 838.922 493.58C838.189 493.167 837.615 492.573 837.202 491.8C836.789 491.013 836.582 490.08 836.582 489C836.582 487.92 836.789 486.993 837.202 486.22C837.615 485.433 838.182 484.833 838.902 484.42C839.622 484.007 840.442 483.8 841.362 483.8C842.295 483.8 843.089 484 843.742 484.4C844.409 484.8 844.915 485.347 845.262 486.04C845.609 486.72 845.782 487.487 845.782 488.34C845.782 488.567 845.775 488.773 845.762 488.96C845.749 489.147 845.729 489.313 845.702 489.46H837.622V488.04H845.002L844.182 488.2C844.182 487.24 843.915 486.5 843.382 485.98C842.862 485.46 842.175 485.2 841.322 485.2C840.669 485.2 840.102 485.353 839.622 485.66C839.155 485.953 838.789 486.387 838.522 486.96C838.269 487.52 838.142 488.2 838.142 489C838.142 489.787 838.275 490.467 838.542 491.04C838.809 491.613 839.182 492.053 839.662 492.36C840.155 492.653 840.742 492.8 841.422 492.8C842.155 492.8 842.749 492.66 843.202 492.38C843.669 492.1 844.042 491.72 844.322 491.24L845.582 491.98C845.329 492.433 845.002 492.827 844.602 493.16C844.215 493.493 843.755 493.753 843.222 493.94C842.702 494.113 842.115 494.2 841.462 494.2ZM848.825 494V484H850.125L850.345 485.64C850.625 485.027 851.032 484.567 851.565 484.26C852.112 483.953 852.772 483.8 853.545 483.8C853.718 483.8 853.905 483.813 854.105 483.84C854.318 483.867 854.498 483.92 854.645 484L854.365 485.46C854.218 485.407 854.058 485.367 853.885 485.34C853.712 485.313 853.465 485.3 853.145 485.3C852.732 485.3 852.312 485.42 851.885 485.66C851.472 485.9 851.125 486.267 850.845 486.76C850.565 487.24 850.425 487.853 850.425 488.6V494H848.825Z" fill="white"/>
<path d="M756.12 507.64H750.008V511.048H754.776V512.248H750.008V517H748.728V506.44H756.12V507.64ZM766.574 506.44V513.064C766.574 514.419 766.216 515.443 765.502 516.136C764.787 516.819 763.763 517.16 762.43 517.16C761.107 517.16 760.083 516.819 759.358 516.136C758.643 515.443 758.286 514.419 758.286 513.064V506.44H759.566V512.744C759.566 513.843 759.795 514.653 760.254 515.176C760.723 515.699 761.448 515.96 762.43 515.96C763.411 515.96 764.131 515.699 764.59 515.176C765.059 514.653 765.294 513.843 765.294 512.744V506.44H766.574ZM771.102 515.8H777.15V517H769.822V506.44H771.102V515.8ZM780.664 515.8H786.712V517H779.384V506.44H780.664V515.8ZM802.25 506.44V517H800.666L796.25 509.928L795.13 507.944H795.114L795.178 509.544V517H793.962V506.44H795.546L799.946 513.48L801.082 515.512H801.098L801.034 513.896V506.44H802.25ZM814.128 517H812.768L811.648 514.072H806.864L805.744 517H804.4L808.512 506.44H810.032L814.128 517ZM807.328 512.872H811.184L809.248 507.672L807.328 512.872ZM826.483 506.44V517H825.267V510.36L825.411 507.576H825.395L821.923 517H820.835L817.363 507.576H817.347L817.491 510.36V517H816.275V506.44H818.243L820.563 512.856L821.363 515.496H821.395L822.211 512.872L824.515 506.44H826.483ZM829.931 517V506.44H837.339V507.64H831.211V511.048H835.979V512.248H831.211V515.8H837.579V517H829.931Z" fill="white"/>
<path d="M1084.22 520.2C1082.73 520.2 1081.53 519.62 1080.64 518.46C1079.75 517.3 1079.3 515.613 1079.3 513.4C1079.3 511.187 1079.75 509.5 1080.64 508.34C1081.53 507.18 1082.73 506.6 1084.22 506.6C1085.73 506.6 1086.92 507.18 1087.8 508.34C1088.69 509.5 1089.14 511.187 1089.14 513.4C1089.14 515.613 1088.69 517.3 1087.8 518.46C1086.92 519.62 1085.73 520.2 1084.22 520.2ZM1084.22 518.76C1084.93 518.76 1085.52 518.56 1086 518.16C1086.49 517.747 1086.86 517.14 1087.1 516.34C1087.35 515.54 1087.48 514.56 1087.48 513.4C1087.48 512.24 1087.35 511.26 1087.1 510.46C1086.86 509.66 1086.49 509.06 1086 508.66C1085.52 508.247 1084.93 508.04 1084.22 508.04C1083.51 508.04 1082.91 508.247 1082.42 508.66C1081.94 509.06 1081.57 509.66 1081.32 510.46C1081.08 511.26 1080.96 512.24 1080.96 513.4C1080.96 514.56 1081.08 515.54 1081.32 516.34C1081.57 517.14 1081.94 517.747 1082.42 518.16C1082.91 518.56 1083.51 518.76 1084.22 518.76ZM1096.38 506.6C1097.49 506.6 1098.42 506.893 1099.18 507.48C1099.94 508.053 1100.51 508.853 1100.9 509.88C1101.29 510.893 1101.48 512.067 1101.48 513.4C1101.48 514.88 1101.29 516.127 1100.9 517.14C1100.51 518.14 1099.94 518.9 1099.18 519.42C1098.43 519.94 1097.51 520.2 1096.4 520.2C1095.31 520.2 1094.37 519.947 1093.58 519.44C1092.79 518.933 1092.21 518.193 1091.82 517.22L1093.4 516.38C1093.61 517.073 1093.96 517.633 1094.44 518.06C1094.93 518.487 1095.61 518.7 1096.46 518.7C1097.15 518.7 1097.73 518.567 1098.18 518.3C1098.65 518.02 1099.01 517.627 1099.28 517.12C1099.55 516.6 1099.73 515.98 1099.84 515.26C1099.96 514.54 1100.02 513.74 1100.02 512.86C1100.02 512.833 1100.02 512.807 1100.02 512.78C1100.02 512.74 1100.02 512.707 1100.02 512.68H1099.94C1099.78 513.28 1099.5 513.767 1099.1 514.14C1098.7 514.5 1098.25 514.76 1097.74 514.92C1097.25 515.08 1096.75 515.16 1096.26 515.16C1095.39 515.16 1094.63 514.993 1093.96 514.66C1093.29 514.313 1092.77 513.833 1092.4 513.22C1092.03 512.607 1091.84 511.88 1091.84 511.04C1091.84 510.133 1092.02 509.353 1092.38 508.7C1092.74 508.033 1093.26 507.52 1093.94 507.16C1094.62 506.787 1095.43 506.6 1096.38 506.6ZM1096.4 508.14C1095.47 508.14 1094.75 508.4 1094.26 508.92C1093.77 509.427 1093.52 510.14 1093.52 511.06C1093.52 511.847 1093.78 512.473 1094.3 512.94C1094.82 513.393 1095.52 513.62 1096.4 513.62C1096.97 513.62 1097.47 513.507 1097.9 513.28C1098.34 513.04 1098.68 512.72 1098.92 512.32C1099.16 511.907 1099.28 511.433 1099.28 510.9C1099.28 510.34 1099.16 509.853 1098.92 509.44C1098.68 509.027 1098.34 508.707 1097.9 508.48C1097.47 508.253 1096.97 508.14 1096.4 508.14ZM1110.69 505.4L1104.57 521.4H1103.07L1109.19 505.4H1110.69ZM1122.48 506.8L1117.76 514.84V520H1116.16V514.84L1111.44 506.8H1113.34L1115.9 511.32L1116.96 513.2L1118.02 511.32L1120.58 506.8H1122.48ZM1133.93 506.8L1129.21 514.84V520H1127.61V514.84L1122.89 506.8H1124.79L1127.35 511.32L1128.41 513.2L1129.47 511.32L1132.03 506.8H1133.93Z" fill="white"/>
<path d="M1082.08 493V486.4H1086.71V487.15H1082.88V489.28H1085.86V490.03H1082.88V492.25H1086.86V493H1082.08ZM1088.79 488L1090.28 490.09L1090.33 490.16L1092.38 493H1091.4L1089.85 490.83L1089.76 490.72L1087.79 488H1088.79ZM1092.35 488L1090.37 490.67H1090.32L1088.6 493H1087.67L1089.85 490.13H1089.91L1091.41 488H1092.35ZM1093.64 495.1V488H1094.34L1094.41 489.22L1094.3 489.08C1094.39 488.847 1094.52 488.643 1094.69 488.47C1094.86 488.29 1095.07 488.15 1095.32 488.05C1095.57 487.95 1095.83 487.9 1096.12 487.9C1096.53 487.9 1096.9 488.003 1097.24 488.21C1097.59 488.417 1097.86 488.713 1098.07 489.1C1098.28 489.487 1098.38 489.953 1098.38 490.5C1098.38 491.04 1098.27 491.507 1098.06 491.9C1097.85 492.287 1097.58 492.583 1097.23 492.79C1096.88 492.997 1096.5 493.1 1096.09 493.1C1095.68 493.1 1095.31 493 1095 492.8C1094.69 492.593 1094.47 492.333 1094.34 492.02L1094.44 491.87V495.1H1093.64ZM1096.01 492.4C1096.5 492.4 1096.89 492.227 1097.16 491.88C1097.44 491.533 1097.58 491.073 1097.58 490.5C1097.58 489.927 1097.44 489.467 1097.17 489.12C1096.9 488.773 1096.53 488.6 1096.04 488.6C1095.72 488.6 1095.44 488.68 1095.2 488.84C1094.96 488.993 1094.77 489.213 1094.64 489.5C1094.51 489.78 1094.44 490.113 1094.44 490.5C1094.44 490.88 1094.5 491.213 1094.63 491.5C1094.76 491.787 1094.95 492.01 1095.18 492.17C1095.42 492.323 1095.7 492.4 1096.01 492.4ZM1100.31 487.04C1100.13 487.04 1099.98 486.987 1099.87 486.88C1099.76 486.767 1099.71 486.62 1099.71 486.44C1099.71 486.26 1099.76 486.117 1099.87 486.01C1099.98 485.897 1100.13 485.84 1100.31 485.84C1100.49 485.84 1100.63 485.897 1100.74 486.01C1100.85 486.117 1100.91 486.26 1100.91 486.44C1100.91 486.62 1100.85 486.767 1100.74 486.88C1100.63 486.987 1100.49 487.04 1100.31 487.04ZM1100.71 488V493H1099.91V488H1100.71ZM1102.56 493V488H1103.21L1103.32 488.82C1103.46 488.513 1103.67 488.283 1103.93 488.13C1104.21 487.977 1104.54 487.9 1104.92 487.9C1105.01 487.9 1105.1 487.907 1105.2 487.92C1105.31 487.933 1105.4 487.96 1105.47 488L1105.33 488.73C1105.26 488.703 1105.18 488.683 1105.09 488.67C1105.01 488.657 1104.88 488.65 1104.72 488.65C1104.52 488.65 1104.31 488.71 1104.09 488.83C1103.89 488.95 1103.71 489.133 1103.57 489.38C1103.43 489.62 1103.36 489.927 1103.36 490.3V493H1102.56ZM1108.58 493.1C1108.11 493.1 1107.68 492.997 1107.31 492.79C1106.94 492.583 1106.66 492.287 1106.45 491.9C1106.24 491.507 1106.14 491.04 1106.14 490.5C1106.14 489.96 1106.24 489.497 1106.45 489.11C1106.66 488.717 1106.94 488.417 1107.3 488.21C1107.66 488.003 1108.07 487.9 1108.53 487.9C1109 487.9 1109.39 488 1109.72 488.2C1110.05 488.4 1110.31 488.673 1110.48 489.02C1110.65 489.36 1110.74 489.743 1110.74 490.17C1110.74 490.283 1110.74 490.387 1110.73 490.48C1110.72 490.573 1110.71 490.657 1110.7 490.73H1106.66V490.02H1110.35L1109.94 490.1C1109.94 489.62 1109.81 489.25 1109.54 488.99C1109.28 488.73 1108.94 488.6 1108.51 488.6C1108.18 488.6 1107.9 488.677 1107.66 488.83C1107.43 488.977 1107.24 489.193 1107.11 489.48C1106.98 489.76 1106.92 490.1 1106.92 490.5C1106.92 490.893 1106.99 491.233 1107.12 491.52C1107.25 491.807 1107.44 492.027 1107.68 492.18C1107.93 492.327 1108.22 492.4 1108.56 492.4C1108.93 492.4 1109.22 492.33 1109.45 492.19C1109.68 492.05 1109.87 491.86 1110.01 491.62L1110.64 491.99C1110.51 492.217 1110.35 492.413 1110.15 492.58C1109.96 492.747 1109.73 492.877 1109.46 492.97C1109.2 493.057 1108.91 493.1 1108.58 493.1ZM1114.06 493.1C1113.58 493.1 1113.13 492.997 1112.71 492.79C1112.31 492.583 1111.99 492.29 1111.77 491.91L1112.45 491.42C1112.6 491.727 1112.81 491.967 1113.09 492.14C1113.38 492.313 1113.72 492.4 1114.12 492.4C1114.48 492.4 1114.75 492.333 1114.95 492.2C1115.15 492.06 1115.25 491.88 1115.25 491.66C1115.25 491.52 1115.21 491.393 1115.11 491.28C1115.03 491.16 1114.86 491.073 1114.6 491.02L1113.4 490.77C1112.92 490.67 1112.57 490.503 1112.35 490.27C1112.15 490.037 1112.04 489.747 1112.04 489.4C1112.04 489.127 1112.12 488.877 1112.27 488.65C1112.43 488.423 1112.66 488.243 1112.94 488.11C1113.24 487.97 1113.58 487.9 1113.97 487.9C1114.47 487.9 1114.88 487.997 1115.22 488.19C1115.56 488.383 1115.82 488.657 1115.98 489.01L1115.31 489.45C1115.2 489.157 1115.02 488.943 1114.76 488.81C1114.51 488.67 1114.25 488.6 1113.97 488.6C1113.73 488.6 1113.53 488.633 1113.35 488.7C1113.19 488.767 1113.06 488.86 1112.96 488.98C1112.88 489.093 1112.83 489.223 1112.83 489.37C1112.83 489.517 1112.88 489.653 1112.98 489.78C1113.08 489.9 1113.27 489.987 1113.54 490.04L1114.79 490.3C1115.26 490.393 1115.59 490.547 1115.77 490.76C1115.96 490.973 1116.05 491.233 1116.05 491.54C1116.05 491.853 1115.97 492.13 1115.8 492.37C1115.64 492.603 1115.4 492.783 1115.1 492.91C1114.8 493.037 1114.46 493.1 1114.06 493.1Z" fill="white"/>
<rect x="47" y="160" width="509" height="546" rx="30" fill="#FFD700"/>
<path d="M35.5859 42.5858C34.8048 43.3668 34.8048 44.6332 35.5859 45.4142L48.3138 58.1421C49.0949 58.9232 50.3612 58.9232 51.1422 58.1421C51.9233 57.3611 51.9233 56.0948 51.1422 55.3137L39.8285 44L51.1422 32.6863C51.9233 31.9052 51.9233 30.6389 51.1422 29.8579C50.3612 29.0768 49.0949 29.0768 48.3138 29.8579L35.5859 42.5858ZM38.4143 42H37.0001V46H38.4143V42Z" fill="#10069F"/>
<circle cx="46" cy="45" r="22.5" stroke="#10069F" stroke-width="5"/>
<defs>
<linearGradient id="paint0_linear_16_56" x1="940" y1="145" x2="1151" y2="645" gradientUnits="userSpaceOnUse">
<stop stop-color="#10069F"/>
<stop offset="0.9999" stop-color="#10069F" stop-opacity="0.37"/>
<stop offset="1" stop-color="#D9D9D9" stop-opacity="0"/>
</linearGradient>
</defs>
</svg>
